<svg width="79" height="84" viewBox="0 0 79 84" fill="" xmlns="http://www.w3.org/2000/svg">
<path d="M73.3741 47.6855V67.7173C73.3741 67.7173 66.8438 79.0004 39.5013 79.0004C12.1587 79.0004 5.60352 67.7173 5.60352 67.7173L5.60352 47.6855" stroke="#4E4E4E" stroke-width="10" stroke-miterlimit="10"/>
<path d="M39.5013 37.9451C58.2225 37.9451 73.399 30.6807 73.399 21.7196C73.399 12.7585 58.2225 5.49414 39.5013 5.49414C20.78 5.49414 5.60352 12.7585 5.60352 21.7196C5.60352 30.6807 20.78 37.9451 39.5013 37.9451Z" stroke="#4E4E4E" stroke-width="10" stroke-miterlimit="10"/>
<path d="M73.3741 23.0566V46.8476C73.3741 46.8476 66.8438 58.1307 39.5013 58.1307C12.1587 58.1307 5.60352 46.8476 5.60352 46.8476L5.60352 23.0566" stroke="#4E4E4E" stroke-width="10" stroke-miterlimit="10"/>
</svg>
